# xmcd
#
# Track frame offsets:
#	150
#	14196
#	30092
#	45611
#	64819
#	78572
#	100551
#	119940
#	135659
#	155413
#	167074
#	184987
#
# Disc length: 2626 seconds
#
# Revision: 1
# Processed by: cddbd v1.5.2PL0 Copyright (c) Steve Scherf et al.
# Submitted via: EasyCDDAExtractor 11.1.0.1
#
DISCID=a00a400c
DTITLE=Mario Matteoli - Golden State
DYEAR=2008
DGENRE=Country
TTITLE0=baby cayce
TTITLE1=got you baby
TTITLE2=bleeding my heart
TTITLE3=flying solo
TTITLE4=best friend
TTITLE5=to call my own
TTITLE6=hey you
TTITLE7=nothing like you
TTITLE8=you follow yours
TTITLE9=what people say (i don't care)
TTITLE10=could the good lord
TTITLE11=ines' lullaby
EXTD=
EXTT0=
EXTT1=
EXTT2=
EXTT3=
EXTT4=
EXTT5=
EXTT6=
EXTT7=
EXTT8=
EXTT9=
EXTT10=
EXTT11=
PLAYORDER=
